<mxfile host="app.diagrams.net" agent="Mozilla/5.0 (Windows NT 10.0; Win64; x64) AppleWebKit/537.36 (KHTML, like Gecko) Chrome/134.0.0.0 Safari/537.36" version="26.1.1">
  <diagram name="Page-1" id="fNVnuzUrxiQcgh-Kx3ib">
    <mxGraphModel dx="1434" dy="866" grid="1" gridSize="10" guides="1" tooltips="1" connect="1" arrows="1" fold="1" page="1" pageScale="1" pageWidth="827" pageHeight="1169" math="0" shadow="0">
      <root>
        <mxCell id="0" />
        <mxCell id="1" parent="0" />
        <mxCell id="OjazrULbCiZMW3rwFvfQ-12" value="" style="group" vertex="1" connectable="0" parent="1">
          <mxGeometry x="310" y="200" width="350" height="320" as="geometry" />
        </mxCell>
        <mxCell id="OjazrULbCiZMW3rwFvfQ-11" value="&lt;b&gt;Product Domain&lt;/b&gt;" style="shape=folder;fontStyle=0;spacingTop=0;tabWidth=110;tabHeight=20;tabPosition=left;html=1;whiteSpace=wrap;labelPosition=left;verticalLabelPosition=top;align=right;verticalAlign=bottom;fontFamily=Poppins;fontSource=https%3A%2F%2Ffonts.googleapis.com%2Fcss%3Ffamily%3DPoppins;spacingLeft=0;spacing=-17;spacingRight=-85;" vertex="1" parent="OjazrULbCiZMW3rwFvfQ-12">
          <mxGeometry width="330" height="320" as="geometry" />
        </mxCell>
        <mxCell id="OjazrULbCiZMW3rwFvfQ-3" style="edgeStyle=orthogonalEdgeStyle;rounded=0;orthogonalLoop=1;jettySize=auto;html=1;" edge="1" parent="OjazrULbCiZMW3rwFvfQ-12" source="OjazrULbCiZMW3rwFvfQ-1" target="OjazrULbCiZMW3rwFvfQ-2">
          <mxGeometry relative="1" as="geometry" />
        </mxCell>
        <mxCell id="OjazrULbCiZMW3rwFvfQ-6" style="edgeStyle=orthogonalEdgeStyle;rounded=0;orthogonalLoop=1;jettySize=auto;html=1;dashed=1;fillColor=#fff2cc;strokeColor=#d6b656;" edge="1" parent="OjazrULbCiZMW3rwFvfQ-12" source="OjazrULbCiZMW3rwFvfQ-1" target="OjazrULbCiZMW3rwFvfQ-4">
          <mxGeometry relative="1" as="geometry" />
        </mxCell>
        <mxCell id="OjazrULbCiZMW3rwFvfQ-1" value="Product&lt;div&gt;Configurator&lt;/div&gt;" style="html=1;outlineConnect=0;whiteSpace=wrap;fillColor=#99ffff;shape=mxgraph.archimate3.application;appType=comp;archiType=square;fontFamily=Poppins;fontSource=https%3A%2F%2Ffonts.googleapis.com%2Fcss%3Ffamily%3DPoppins;" vertex="1" parent="OjazrULbCiZMW3rwFvfQ-12">
          <mxGeometry x="20" y="140" width="120" height="60" as="geometry" />
        </mxCell>
        <mxCell id="OjazrULbCiZMW3rwFvfQ-2" value="Components&lt;div&gt;Library&lt;/div&gt;" style="html=1;outlineConnect=0;whiteSpace=wrap;fillColor=#99ffff;shape=mxgraph.archimate3.application;appType=comp;archiType=square;fontFamily=Poppins;fontSource=https%3A%2F%2Ffonts.googleapis.com%2Fcss%3Ffamily%3DPoppins;" vertex="1" parent="OjazrULbCiZMW3rwFvfQ-12">
          <mxGeometry x="190" y="140" width="120" height="60" as="geometry" />
        </mxCell>
        <mxCell id="OjazrULbCiZMW3rwFvfQ-4" value="Pricing and Underwriting" style="html=1;outlineConnect=0;whiteSpace=wrap;fillColor=#fff2cc;shape=mxgraph.archimate3.application;appType=comp;archiType=square;fontFamily=Poppins;fontSource=https%3A%2F%2Ffonts.googleapis.com%2Fcss%3Ffamily%3DPoppins;dashed=1;strokeColor=#d6b656;" vertex="1" parent="OjazrULbCiZMW3rwFvfQ-12">
          <mxGeometry x="20" y="40" width="120" height="60" as="geometry" />
        </mxCell>
        <mxCell id="OjazrULbCiZMW3rwFvfQ-7" style="edgeStyle=orthogonalEdgeStyle;rounded=0;orthogonalLoop=1;jettySize=auto;html=1;dashed=1;fillColor=#ffe6cc;strokeColor=#d79b00;startArrow=classic;startFill=1;endArrow=none;" edge="1" parent="OjazrULbCiZMW3rwFvfQ-12" source="OjazrULbCiZMW3rwFvfQ-2" target="OjazrULbCiZMW3rwFvfQ-4">
          <mxGeometry relative="1" as="geometry">
            <Array as="points">
              <mxPoint x="250" y="70" />
            </Array>
          </mxGeometry>
        </mxCell>
        <mxCell id="OjazrULbCiZMW3rwFvfQ-9" style="edgeStyle=orthogonalEdgeStyle;rounded=0;orthogonalLoop=1;jettySize=auto;html=1;fillColor=#fff2cc;strokeColor=#d6b656;dashed=1;" edge="1" parent="OjazrULbCiZMW3rwFvfQ-12" source="OjazrULbCiZMW3rwFvfQ-8" target="OjazrULbCiZMW3rwFvfQ-1">
          <mxGeometry relative="1" as="geometry" />
        </mxCell>
        <mxCell id="OjazrULbCiZMW3rwFvfQ-10" style="edgeStyle=orthogonalEdgeStyle;rounded=0;orthogonalLoop=1;jettySize=auto;html=1;fillColor=#fff2cc;strokeColor=#d6b656;dashed=1;" edge="1" parent="OjazrULbCiZMW3rwFvfQ-12" source="OjazrULbCiZMW3rwFvfQ-8" target="OjazrULbCiZMW3rwFvfQ-2">
          <mxGeometry relative="1" as="geometry" />
        </mxCell>
        <mxCell id="OjazrULbCiZMW3rwFvfQ-8" value="Terms &lt;br&gt;&amp;amp;&lt;br&gt;Conditions" style="html=1;outlineConnect=0;whiteSpace=wrap;fillColor=#fff2cc;shape=mxgraph.archimate3.application;appType=comp;archiType=square;fontFamily=Poppins;fontSource=https%3A%2F%2Ffonts.googleapis.com%2Fcss%3Ffamily%3DPoppins;dashed=1;strokeColor=#d6b656;" vertex="1" parent="OjazrULbCiZMW3rwFvfQ-12">
          <mxGeometry x="20" y="240" width="120" height="60" as="geometry" />
        </mxCell>
      </root>
    </mxGraphModel>
  </diagram>
</mxfile>
